<?xml version="1.0" encoding="UTF-8"?>
<svg id="_图层_2" data-name="图层 2" xmlns="http://www.w3.org/2000/svg" xmlns:xlink="http://www.w3.org/1999/xlink" viewBox="0 0 128 128">
  <defs>
    <style>
      .cls-1 {
        fill: #f5ad24;
      }

      .cls-2 {
        clip-path: url(#clippath);
      }

      .cls-3 {
        fill: none;
      }
    </style>
    <clipPath id="clippath">
      <rect class="cls-3" width="128" height="128"/>
    </clipPath>
  </defs>
  <g id="_图层_1-2" data-name="图层 1">
    <g class="cls-2">
      <g>
        <path class="cls-1" d="m67.4,93.42l1.38,7.83c.79,4.48-2.65,8.59-7.2,8.59h-.09c-30.01,0-54.19-27.04-49.32-57.88C15.51,30.79,32.39,13.91,53.56,10.57c30.84-4.87,57.88,19.32,57.88,49.32,0,2.94-.26,5.87-.77,8.76-.8,4.5-5.57,7.11-9.86,5.55l-7.32-2.67c-14.22-5.17-28.71,6.98-26.08,21.88Z"/>
        <path class="cls-1" d="m102.14,81.65l9.17,3.34c4.65,1.69,6.57,7.2,4.03,11.45-2.85,4.78-6.49,9.07-10.79,12.67s-9.15,6.45-14.35,8.42c-4.62,1.76-9.71-1.09-10.57-5.96l-1.69-9.61c-2.44-13.83,11.01-25.12,24.21-20.31Z"/>
      </g>
    </g>
  </g>
</svg>